<mxfile host="app.diagrams.net" modified="2020-09-30T07:58:59.101Z" agent="5.0 (Windows NT 10.0; Win64; x64) AppleWebKit/537.36 (KHTML, like Gecko) Chrome/85.0.4183.121 Safari/537.36" etag="wit7Y8abbauNj6GMbZ_n" version="13.7.6" type="github">
  <diagram id="knqCaG2FTfxwOULkrjFr" name="Page-1">
    <mxGraphModel dx="1374" dy="762" grid="1" gridSize="10" guides="1" tooltips="1" connect="1" arrows="1" fold="1" page="1" pageScale="1" pageWidth="827" pageHeight="1169" math="0" shadow="0">
      <root>
        <mxCell id="0" />
        <mxCell id="1" parent="0" />
        <mxCell id="AejkcIZQlVe7cdFHiinB-18" style="edgeStyle=orthogonalEdgeStyle;rounded=0;orthogonalLoop=1;jettySize=auto;html=1;entryX=0.5;entryY=0.16;entryDx=0;entryDy=0;entryPerimeter=0;" edge="1" parent="1" source="AejkcIZQlVe7cdFHiinB-1" target="AejkcIZQlVe7cdFHiinB-16">
          <mxGeometry relative="1" as="geometry">
            <Array as="points">
              <mxPoint x="503" y="173" />
            </Array>
          </mxGeometry>
        </mxCell>
        <mxCell id="AejkcIZQlVe7cdFHiinB-21" style="edgeStyle=orthogonalEdgeStyle;rounded=0;orthogonalLoop=1;jettySize=auto;html=1;" edge="1" parent="1" source="AejkcIZQlVe7cdFHiinB-1" target="AejkcIZQlVe7cdFHiinB-8">
          <mxGeometry relative="1" as="geometry" />
        </mxCell>
        <mxCell id="AejkcIZQlVe7cdFHiinB-1" value="InternalBusinessUser" style="shape=umlActor;verticalLabelPosition=bottom;verticalAlign=top;html=1;" vertex="1" parent="1">
          <mxGeometry x="110" y="142.5" width="30" height="60" as="geometry" />
        </mxCell>
        <mxCell id="AejkcIZQlVe7cdFHiinB-20" style="edgeStyle=orthogonalEdgeStyle;rounded=0;orthogonalLoop=1;jettySize=auto;html=1;entryX=0.175;entryY=0.5;entryDx=0;entryDy=0;entryPerimeter=0;" edge="1" parent="1" source="AejkcIZQlVe7cdFHiinB-3" target="AejkcIZQlVe7cdFHiinB-16">
          <mxGeometry relative="1" as="geometry" />
        </mxCell>
        <mxCell id="AejkcIZQlVe7cdFHiinB-3" value="EndUser" style="shape=umlActor;verticalLabelPosition=bottom;verticalAlign=top;html=1;" vertex="1" parent="1">
          <mxGeometry x="110" y="300" width="30" height="60" as="geometry" />
        </mxCell>
        <mxCell id="AejkcIZQlVe7cdFHiinB-4" value="Actor" style="shape=umlActor;verticalLabelPosition=bottom;verticalAlign=top;html=1;" vertex="1" parent="1">
          <mxGeometry x="110" y="555" width="30" height="60" as="geometry" />
        </mxCell>
        <mxCell id="AejkcIZQlVe7cdFHiinB-7" value="Home Region" style="points=[[0,0],[0.25,0],[0.5,0],[0.75,0],[1,0],[1,0.25],[1,0.5],[1,0.75],[1,1],[0.75,1],[0.5,1],[0.25,1],[0,1],[0,0.75],[0,0.5],[0,0.25]];outlineConnect=0;gradientColor=none;html=1;whiteSpace=wrap;fontSize=12;fontStyle=0;shape=mxgraph.aws4.group;grIcon=mxgraph.aws4.group_region;strokeColor=#147EBA;fillColor=none;verticalAlign=top;align=left;spacingLeft=30;fontColor=#147EBA;dashed=0;" vertex="1" parent="1">
          <mxGeometry x="640" y="80" width="530" height="570" as="geometry" />
        </mxCell>
        <mxCell id="AejkcIZQlVe7cdFHiinB-8" value="Customer Support VPC" style="points=[[0,0],[0.25,0],[0.5,0],[0.75,0],[1,0],[1,0.25],[1,0.5],[1,0.75],[1,1],[0.75,1],[0.5,1],[0.25,1],[0,1],[0,0.75],[0,0.5],[0,0.25]];outlineConnect=0;gradientColor=none;html=1;whiteSpace=wrap;fontSize=12;fontStyle=0;shape=mxgraph.aws4.group;grIcon=mxgraph.aws4.group_vpc;strokeColor=#248814;fillColor=none;verticalAlign=top;align=left;spacingLeft=30;fontColor=#AAB7B8;dashed=0;" vertex="1" parent="1">
          <mxGeometry x="680" y="115" width="320" height="115" as="geometry" />
        </mxCell>
        <mxCell id="AejkcIZQlVe7cdFHiinB-10" value="Customer Support App" style="rounded=0;whiteSpace=wrap;html=1;" vertex="1" parent="1">
          <mxGeometry x="694" y="150" width="120" height="60" as="geometry" />
        </mxCell>
        <mxCell id="AejkcIZQlVe7cdFHiinB-12" value="TRS (SaaS ??)" style="rounded=0;whiteSpace=wrap;html=1;" vertex="1" parent="1">
          <mxGeometry x="850" y="150" width="120" height="60" as="geometry" />
        </mxCell>
        <mxCell id="AejkcIZQlVe7cdFHiinB-13" value="Corporate Site VPC" style="points=[[0,0],[0.25,0],[0.5,0],[0.75,0],[1,0],[1,0.25],[1,0.5],[1,0.75],[1,1],[0.75,1],[0.5,1],[0.25,1],[0,1],[0,0.75],[0,0.5],[0,0.25]];outlineConnect=0;gradientColor=none;html=1;whiteSpace=wrap;fontSize=12;fontStyle=0;shape=mxgraph.aws4.group;grIcon=mxgraph.aws4.group_vpc;strokeColor=#248814;fillColor=none;verticalAlign=top;align=left;spacingLeft=30;fontColor=#AAB7B8;dashed=0;" vertex="1" parent="1">
          <mxGeometry x="680" y="260" width="320" height="140" as="geometry" />
        </mxCell>
        <mxCell id="AejkcIZQlVe7cdFHiinB-14" value="Corporate Site CMS" style="rounded=0;whiteSpace=wrap;html=1;" vertex="1" parent="1">
          <mxGeometry x="700" y="295" width="120" height="60" as="geometry" />
        </mxCell>
        <mxCell id="AejkcIZQlVe7cdFHiinB-17" style="edgeStyle=orthogonalEdgeStyle;rounded=0;orthogonalLoop=1;jettySize=auto;html=1;" edge="1" parent="1" source="AejkcIZQlVe7cdFHiinB-16" target="AejkcIZQlVe7cdFHiinB-13">
          <mxGeometry relative="1" as="geometry" />
        </mxCell>
        <mxCell id="AejkcIZQlVe7cdFHiinB-16" value="Cloud&#xa;CDN" style="html=1;fillColor=#5184F3;strokeColor=none;verticalAlign=top;labelPosition=center;verticalLabelPosition=bottom;align=center;spacingTop=-6;fontSize=11;fontStyle=1;fontColor=#999999;shape=mxgraph.gcp2.hexIcon;prIcon=cloud_cdn" vertex="1" parent="1">
          <mxGeometry x="470" y="300.75" width="66" height="58.5" as="geometry" />
        </mxCell>
      </root>
    </mxGraphModel>
  </diagram>
</mxfile>
